<svg width="736" height="421" viewBox="0 0 736 421" fill="none" xmlns="http://www.w3.org/2000/svg">
<g clip-path="url(#clip0_2_24)">
<rect width="736" height="421" fill="white"/>
<path d="M136.682 237.455V232L180.591 209.636V218.364L146.909 234.591L147.182 234.045V235.409L146.909 234.864L180.591 251.091V259.818L136.682 237.455Z" fill="#3FD10B"/>
<path d="M259.591 239.455L215.682 261.818V253.091L249.364 236.864L249.091 237.409V236.045L249.364 236.591L215.682 220.364V211.636L259.591 234V239.455Z" fill="#FF2507"/>
<path d="M198.898 246.353L191.814 241.133L190.821 239.62L192.101 239.277L199.956 245.179L200.179 246.009L198.898 246.353Z" fill="black" stroke="black"/>
<path d="M201.414 209.647L192.046 239.07L199.845 244.764L201.477 239.879L203.594 232.416L205.163 225.101L207.671 213.975L208.715 208.358L210.228 200.835L211.558 193.361L212.004 189.905L211.671 188.66L210.844 187.77L209.397 187.49L208.649 188.358L205.768 197.359L201.414 209.647Z" fill="url(#paint0_linear_2_24)" stroke="url(#paint1_linear_2_24)"/>
<path d="M190.47 244.163L186.918 260.906L187.395 261.223L191.505 264.125L194.776 256.576L198.739 247.952L198.771 246.609L191.743 241.597L190.685 242.77L190.47 244.163Z" fill="url(#paint2_linear_2_24)" stroke="url(#paint3_linear_2_24)"/>
<path d="M191.378 264.382L186.846 261.37L186.393 262.604L186.631 262.762L186.87 262.921L188.833 264.396L190.797 265.872L191.378 264.382Z" fill="url(#paint4_linear_2_24)" stroke="url(#paint5_linear_2_24)"/>
<path d="M185.478 262.849L186.687 262.97L190.908 266.287C191.399 266.864 191.59 267.277 191.647 268.313C191.836 268.725 191.927 269.099 192.021 270.437C192.332 271.02 192.423 271.481 192.266 272.818L192.268 272.822C192.375 273.083 192.435 273.231 192.051 274.21C192.075 274.382 192.073 274.515 191.78 275.395C191.749 275.911 191.522 276.116 191.088 276.47C190.746 277.022 190.213 277.594 190.213 277.594C190.213 277.594 189.264 278.754 189.227 278.303L188.893 277.058L187.573 276.522L186.11 276.914L186.23 274.435L184.95 274.778L184.998 272.764L184.139 273.216L184.116 271.666C184.116 271.666 183.965 270.372 184.331 270.273C184.697 270.175 182.518 270.092 182.518 270.092L182.24 269.054L180.299 269.13L180.697 267.688C180.865 267.005 181.008 266.623 181.406 265.942L182.408 264.561L183.832 263.29L185.478 262.849Z" fill="#E97810" stroke="#E97810"/>
<path d="M179.758 271.499L180.172 269.386L180.355 269.337L182.295 269.262L182.756 270.251L184.203 270.53L184.171 271.873L184.195 273.424L185.109 273.179L185.005 274.986L186.158 274.899L186.166 277.122L187.812 276.681L188.949 277.266L189.338 278.718L188.627 279.724C188.134 280.158 187.54 280.456 186.233 281.033L186.069 281.151C185.234 281.928 185.014 281.99 184.717 281.958C184.523 282.309 184.089 282.534 182.45 283.01C182.006 283.312 182.067 283.444 180.147 283.924C179.726 284.246 179.396 284.397 178.134 284.463C177.461 284.55 177.212 284.789 176.12 284.262C176.12 284.262 175.259 283.974 174.726 283.449C174.193 282.925 175.608 282.353 175.608 282.353C175.965 282.076 176.19 281.736 176.611 280.972L177.275 279.059L178.293 277.007L178.691 275.566L179.233 273.197L179.758 271.499Z" fill="#EF0F0F" stroke="#FF2507"/>
<path d="M289.469 253V208.188H293.5V249.156H310.656V253H289.469ZM335.875 253L333.75 249.75C332.875 250.938 331.781 251.885 330.469 252.594C329.156 253.281 327.719 253.625 326.156 253.625H325.188C323.896 253.625 322.677 253.385 321.531 252.906C320.385 252.406 319.385 251.729 318.531 250.875C317.677 250.021 317 249.021 316.5 247.875C316.021 246.729 315.781 245.51 315.781 244.219V221H319.625V244.438C319.625 245.208 319.771 245.938 320.062 246.625C320.354 247.292 320.75 247.875 321.25 248.375C321.75 248.875 322.333 249.271 323 249.562C323.688 249.854 324.417 250 325.188 250H327.75C328.521 250 329.24 249.854 329.906 249.562C330.594 249.271 331.188 248.875 331.688 248.375C332.188 247.875 332.583 247.292 332.875 246.625C333.167 245.938 333.312 245.208 333.312 244.438V221H337.156V253H335.875ZM346.125 253V208.188H349.969V253H346.125ZM380.344 244.219C380.344 245.51 380.094 246.729 379.594 247.875C379.115 249.021 378.448 250.021 377.594 250.875C376.74 251.729 375.74 252.406 374.594 252.906C373.448 253.385 372.229 253.625 370.938 253.625H368.375C367.083 253.625 365.865 253.385 364.719 252.906C363.573 252.406 362.573 251.729 361.719 250.875C360.865 250.021 360.188 249.021 359.688 247.875C359.208 246.729 358.969 245.51 358.969 244.219V229.781C358.969 228.49 359.208 227.271 359.688 226.125C360.188 224.979 360.865 223.979 361.719 223.125C362.573 222.271 363.573 221.604 364.719 221.125C365.865 220.625 367.083 220.375 368.375 220.375H370.938C372.229 220.375 373.448 220.625 374.594 221.125C375.74 221.604 376.74 222.271 377.594 223.125C378.448 223.979 379.115 224.979 379.594 226.125C380.094 227.271 380.344 228.49 380.344 229.781V237.312H362.812V244.438C362.812 245.208 362.958 245.938 363.25 246.625C363.542 247.292 363.938 247.875 364.438 248.375C364.938 248.875 365.521 249.271 366.188 249.562C366.875 249.854 367.604 250 368.375 250H370.938C371.708 250 372.427 249.854 373.094 249.562C373.781 249.271 374.375 248.875 374.875 248.375C375.375 247.875 375.771 247.292 376.062 246.625C376.354 245.938 376.5 245.208 376.5 244.438V242.312L380.344 242.938V244.219ZM376.5 229.562C376.5 228.792 376.354 228.073 376.062 227.406C375.771 226.719 375.375 226.125 374.875 225.625C374.375 225.125 373.781 224.729 373.094 224.438C372.427 224.146 371.708 224 370.938 224H368.375C367.604 224 366.875 224.146 366.188 224.438C365.521 224.729 364.938 225.125 364.438 225.625C363.938 226.125 363.542 226.719 363.25 227.406C362.958 228.073 362.812 228.792 362.812 229.562V234.312H376.5V229.562ZM420.875 242.562H406.688L403.75 253H399.562L412.688 208.188H414.812L428 253H423.844L420.875 242.562ZM407.781 238.719H419.812L413.906 218.062L413.781 216.406L413.656 218.062L407.781 238.719ZM450 253V229.562C450 228.792 449.854 228.073 449.562 227.406C449.271 226.719 448.875 226.125 448.375 225.625C447.875 225.125 447.281 224.729 446.594 224.438C445.927 224.146 445.208 224 444.438 224H441.875C441.104 224 440.375 224.146 439.688 224.438C439.021 224.729 438.438 225.125 437.938 225.625C437.438 226.125 437.042 226.719 436.75 227.406C436.458 228.073 436.312 228.792 436.312 229.562V253H432.469V208.188H436.312V223.688C437.188 222.646 438.24 221.833 439.469 221.25C440.698 220.667 442.031 220.375 443.469 220.375H444.438C445.729 220.375 446.948 220.625 448.094 221.125C449.24 221.604 450.24 222.271 451.094 223.125C451.948 223.979 452.615 224.979 453.094 226.125C453.594 227.271 453.844 228.49 453.844 229.781V253H450ZM495.312 253V229.562C495.312 228.792 495.167 228.073 494.875 227.406C494.583 226.719 494.188 226.125 493.688 225.625C493.188 225.125 492.594 224.729 491.906 224.438C491.24 224.146 490.521 224 489.75 224H487.844C487.073 224 486.344 224.146 485.656 224.438C484.99 224.729 484.396 225.125 483.875 225.625C483.375 226.125 482.979 226.719 482.688 227.406C482.396 228.073 482.25 228.792 482.25 229.562V253H478.438V229.562C478.438 228.792 478.292 228.073 478 227.406C477.708 226.719 477.302 226.125 476.781 225.625C476.281 225.125 475.688 224.729 475 224.438C474.333 224.146 473.615 224 472.844 224H470.938C470.167 224 469.438 224.146 468.75 224.438C468.083 224.729 467.5 225.125 467 225.625C466.5 226.125 466.104 226.719 465.812 227.406C465.521 228.073 465.375 228.792 465.375 229.562V253H461.531V221H462.812L464.906 224.25C465.781 223.062 466.875 222.125 468.188 221.438C469.521 220.729 470.969 220.375 472.531 220.375H472.844C474.656 220.375 476.292 220.823 477.75 221.719C479.208 222.615 480.333 223.802 481.125 225.281C481.521 224.552 482.01 223.885 482.594 223.281C483.177 222.677 483.823 222.167 484.531 221.75C485.24 221.312 486.01 220.979 486.844 220.75C487.677 220.5 488.542 220.375 489.438 220.375H489.75C491.042 220.375 492.26 220.625 493.406 221.125C494.552 221.604 495.552 222.271 496.406 223.125C497.26 223.979 497.927 224.979 498.406 226.125C498.906 227.271 499.156 228.49 499.156 229.781V253H495.312ZM528.219 244.219C528.219 245.51 527.969 246.729 527.469 247.875C526.99 249.021 526.323 250.021 525.469 250.875C524.615 251.729 523.615 252.406 522.469 252.906C521.323 253.385 520.104 253.625 518.812 253.625H516.25C514.958 253.625 513.74 253.385 512.594 252.906C511.448 252.406 510.448 251.729 509.594 250.875C508.74 250.021 508.062 249.021 507.562 247.875C507.083 246.729 506.844 245.51 506.844 244.219V229.781C506.844 228.49 507.083 227.271 507.562 226.125C508.062 224.979 508.74 223.979 509.594 223.125C510.448 222.271 511.448 221.604 512.594 221.125C513.74 220.625 514.958 220.375 516.25 220.375H518.812C520.104 220.375 521.323 220.625 522.469 221.125C523.615 221.604 524.615 222.271 525.469 223.125C526.323 223.979 526.99 224.979 527.469 226.125C527.969 227.271 528.219 228.49 528.219 229.781V237.312H510.688V244.438C510.688 245.208 510.833 245.938 511.125 246.625C511.417 247.292 511.812 247.875 512.312 248.375C512.812 248.875 513.396 249.271 514.062 249.562C514.75 249.854 515.479 250 516.25 250H518.812C519.583 250 520.302 249.854 520.969 249.562C521.656 249.271 522.25 248.875 522.75 248.375C523.25 247.875 523.646 247.292 523.938 246.625C524.229 245.938 524.375 245.208 524.375 244.438V242.312L528.219 242.938V244.219ZM524.375 229.562C524.375 228.792 524.229 228.073 523.938 227.406C523.646 226.719 523.25 226.125 522.75 225.625C522.25 225.125 521.656 224.729 520.969 224.438C520.302 224.146 519.583 224 518.812 224H516.25C515.479 224 514.75 224.146 514.062 224.438C513.396 224.729 512.812 225.125 512.312 225.625C511.812 226.125 511.417 226.719 511.125 227.406C510.833 228.073 510.688 228.792 510.688 229.562V234.312H524.375V229.562ZM556 253L553.875 249.75C553 250.938 551.906 251.885 550.594 252.594C549.281 253.281 547.844 253.625 546.281 253.625H545.312C544.021 253.625 542.802 253.385 541.656 252.906C540.51 252.406 539.51 251.729 538.656 250.875C537.802 250.021 537.125 249.021 536.625 247.875C536.146 246.729 535.906 245.51 535.906 244.219V229.781C535.906 228.49 536.146 227.271 536.625 226.125C537.125 224.979 537.802 223.979 538.656 223.125C539.51 222.271 540.51 221.604 541.656 221.125C542.802 220.625 544.021 220.375 545.312 220.375H546.281C547.719 220.375 549.052 220.667 550.281 221.25C551.51 221.833 552.562 222.646 553.438 223.688V208.188H557.281V253H556ZM553.438 229.562C553.438 228.792 553.292 228.073 553 227.406C552.708 226.719 552.312 226.125 551.812 225.625C551.312 225.125 550.719 224.729 550.031 224.438C549.365 224.146 548.646 224 547.875 224H545.312C544.542 224 543.812 224.146 543.125 224.438C542.458 224.729 541.875 225.125 541.375 225.625C540.875 226.125 540.479 226.719 540.188 227.406C539.896 228.073 539.75 228.792 539.75 229.562V244.438C539.75 245.208 539.896 245.938 540.188 246.625C540.479 247.292 540.875 247.875 541.375 248.375C541.875 248.875 542.458 249.271 543.125 249.562C543.812 249.854 544.542 250 545.312 250H547.875C548.646 250 549.365 249.854 550.031 249.562C550.719 249.271 551.312 248.875 551.812 248.375C552.312 247.875 552.708 247.292 553 246.625C553.292 245.938 553.438 245.208 553.438 244.438V229.562Z" fill="black"/>
</g>
<defs>
<linearGradient id="paint0_linear_2_24" x1="195.769" y1="191.142" x2="209.448" y2="242.191" gradientUnits="userSpaceOnUse">
<stop stop-color="#E0710B"/>
<stop offset="0.494792" stop-color="#5E5650" stop-opacity="0.950521"/>
<stop offset="1" stop-color="#DF720D" stop-opacity="0.9"/>
</linearGradient>
<linearGradient id="paint1_linear_2_24" x1="195.769" y1="191.142" x2="209.448" y2="242.191" gradientUnits="userSpaceOnUse">
<stop stop-color="#C06918" stop-opacity="0.9"/>
<stop offset="1" stop-color="#94551A" stop-opacity="0"/>
</linearGradient>
<linearGradient id="paint2_linear_2_24" x1="189.731" y1="242.136" x2="195.347" y2="263.096" gradientUnits="userSpaceOnUse">
<stop stop-color="#E12A2A"/>
<stop offset="0.489583"/>
<stop offset="1" stop-color="#E12A2A" stop-opacity="0"/>
</linearGradient>
<linearGradient id="paint3_linear_2_24" x1="189.731" y1="242.136" x2="195.347" y2="263.096" gradientUnits="userSpaceOnUse">
<stop stop-color="#772D2D"/>
<stop offset="0.828125" stop-color="#C4C4C4" stop-opacity="0"/>
</linearGradient>
<linearGradient id="paint4_linear_2_24" x1="188.218" y1="261.002" x2="189.608" y2="266.19" gradientUnits="userSpaceOnUse">
<stop offset="0.291667" stop-color="#C4C4C4"/>
<stop offset="0.494792"/>
<stop offset="0.71875" stop-color="#C4C4C4" stop-opacity="0.93"/>
</linearGradient>
<linearGradient id="paint5_linear_2_24" x1="188.218" y1="261.002" x2="189.608" y2="266.19" gradientUnits="userSpaceOnUse">
<stop stop-color="#C4C4C4"/>
<stop offset="0.828125" stop-color="#C4C4C4" stop-opacity="0"/>
</linearGradient>
<clipPath id="clip0_2_24">
<rect width="736" height="421" fill="white"/>
</clipPath>
</defs>
</svg>
