<?xml version="1.0" encoding="utf-8"?>
<!-- Generator: Adobe Illustrator 26.3.1, SVG Export Plug-In . SVG Version: 6.00 Build 0)  -->
<svg version="1.1" id="Layer_1" xmlns="http://www.w3.org/2000/svg" xmlns:xlink="http://www.w3.org/1999/xlink" x="0px" y="0px"
	 viewBox="0 0 736 421" style="enable-background:new 0 0 736 421;" xml:space="preserve">
<style type="text/css">
	.st0{clip-path:url(#SVGID_00000035532123431930237800000016035710870607609261_);}
	.st1{fill:#3FD10B;}
	.st2{fill:#FF2507;}
	.st3{stroke:#000000;}
	
		.st4{fill:url(#SVGID_00000037692264949978813960000009854247284216371881_);stroke:url(#SVGID_00000134928900777919058450000018302803506309533323_);}
	
		.st5{fill:url(#SVGID_00000005978122015624703580000011097226138361803415_);stroke:url(#SVGID_00000131348207234282403960000012101903422668960425_);}
	
		.st6{fill:url(#SVGID_00000025426817404862467900000009113578760481478824_);stroke:url(#SVGID_00000018225113633337230900000015304962169313296314_);}
	.st7{fill:#E97810;stroke:#E97810;}
	.st8{fill:#EF0F0F;stroke:#FF2507;}
</style>
<g>
	<defs>
		<rect id="SVGID_1_" width="736" height="421"/>
	</defs>
	<clipPath id="SVGID_00000007426210361808626500000013486168191293294749_">
		<use xlink:href="#SVGID_1_"  style="overflow:visible;"/>
	</clipPath>
	<g style="clip-path:url(#SVGID_00000007426210361808626500000013486168191293294749_);">
		<path class="st1" d="M136.7,237.5V232l43.9-22.4v8.7l-33.7,16.2l0.3-0.5v1.4l-0.3-0.5l33.7,16.2v8.7L136.7,237.5z"/>
		<path class="st2" d="M259.6,239.5l-43.9,22.4v-8.7l33.7-16.2l-0.3,0.5V236l0.3,0.5l-33.7-16.2v-8.7l43.9,22.4V239.5z"/>
		<path class="st3" d="M198.9,246.4l-7.1-5.2l-1-1.5l1.3-0.3l7.9,5.9l0.2,0.8L198.9,246.4z"/>
		
			<linearGradient id="SVGID_00000178194451773105345310000002183778845419999114_" gradientUnits="userSpaceOnUse" x1="195.7696" y1="230.8584" x2="209.4486" y2="179.8094" gradientTransform="matrix(1 0 0 -1 0 422)">
			<stop  offset="0" style="stop-color:#E0710B"/>
			<stop  offset="0.4948" style="stop-color:#5E5650;stop-opacity:0.9505"/>
			<stop  offset="1" style="stop-color:#DF720D;stop-opacity:0.9"/>
		</linearGradient>
		
			<linearGradient id="SVGID_00000137092833082186701890000008907635759070325153_" gradientUnits="userSpaceOnUse" x1="195.714" y1="230.8433" x2="209.393" y2="179.7943" gradientTransform="matrix(1 0 0 -1 0 422)">
			<stop  offset="0" style="stop-color:#C06918;stop-opacity:0.9"/>
			<stop  offset="1" style="stop-color:#94551A;stop-opacity:0"/>
		</linearGradient>
		
			<path style="fill:url(#SVGID_00000178194451773105345310000002183778845419999114_);stroke:url(#SVGID_00000137092833082186701890000008907635759070325153_);" d="
			M201.4,209.6l-9.4,29.4l7.8,5.7l1.6-4.9l2.1-7.5l1.6-7.3l2.5-11.1l1-5.6l1.5-7.5l1.3-7.5l0.4-3.5l-0.3-1.2l-0.8-0.9l-1.4-0.3
			l-0.7,0.9l-2.9,9L201.4,209.6z"/>
		
			<linearGradient id="SVGID_00000127752420970846031020000012542545492645459878_" gradientUnits="userSpaceOnUse" x1="189.7307" y1="179.8638" x2="195.3466" y2="158.9043" gradientTransform="matrix(1 0 0 -1 0 422)">
			<stop  offset="0" style="stop-color:#E12A2A"/>
			<stop  offset="0.4896" style="stop-color:#000000"/>
			<stop  offset="1" style="stop-color:#E12A2A;stop-opacity:0"/>
		</linearGradient>
		
			<linearGradient id="SVGID_00000025408512254027350060000015229342135924720517_" gradientUnits="userSpaceOnUse" x1="189.7088" y1="179.8581" x2="195.3248" y2="158.8981" gradientTransform="matrix(1 0 0 -1 0 422)">
			<stop  offset="0" style="stop-color:#772D2D"/>
			<stop  offset="0.8281" style="stop-color:#C4C4C4;stop-opacity:0"/>
		</linearGradient>
		
			<path style="fill:url(#SVGID_00000127752420970846031020000012542545492645459878_);stroke:url(#SVGID_00000025408512254027350060000015229342135924720517_);" d="
			M190.5,244.2l-3.6,16.7l0.5,0.3l4.1,2.9l3.3-7.5l4-8.6l0-1.3l-7-5l-1.1,1.2L190.5,244.2z"/>
		
			<linearGradient id="SVGID_00000109752481933757303870000005266470538604073627_" gradientUnits="userSpaceOnUse" x1="188.2182" y1="160.9977" x2="189.6082" y2="155.8095" gradientTransform="matrix(1 0 0 -1 0 422)">
			<stop  offset="0.2917" style="stop-color:#C4C4C4"/>
			<stop  offset="0.4948" style="stop-color:#000000"/>
			<stop  offset="0.7188" style="stop-color:#C4C4C4;stop-opacity:0.93"/>
		</linearGradient>
		
			<linearGradient id="SVGID_00000008857284767938235580000009780749306008944268_" gradientUnits="userSpaceOnUse" x1="188.2206" y1="160.9987" x2="189.6106" y2="155.8107" gradientTransform="matrix(1 0 0 -1 0 422)">
			<stop  offset="0" style="stop-color:#C4C4C4"/>
			<stop  offset="0.8281" style="stop-color:#C4C4C4;stop-opacity:0"/>
		</linearGradient>
		
			<path style="fill:url(#SVGID_00000109752481933757303870000005266470538604073627_);stroke:url(#SVGID_00000008857284767938235580000009780749306008944268_);" d="
			M191.4,264.4l-4.5-3l-0.5,1.2l0.2,0.2l0.2,0.2l2,1.5l2,1.5L191.4,264.4z"/>
		<path class="st7" d="M185.5,262.8l1.2,0.1l4.2,3.3c0.5,0.6,0.7,1,0.7,2c0.2,0.4,0.3,0.8,0.4,2.1c0.3,0.6,0.4,1,0.2,2.4l0,0
			c0.1,0.3,0.2,0.4-0.2,1.4c0,0.2,0,0.3-0.3,1.2c0,0.5-0.3,0.7-0.7,1.1c-0.3,0.6-0.9,1.1-0.9,1.1s-0.9,1.2-1,0.7l-0.3-1.2l-1.3-0.5
			l-1.5,0.4l0.1-2.5l-1.3,0.3l0-2l-0.9,0.5l0-1.6c0,0-0.2-1.3,0.2-1.4c0.4-0.1-1.8-0.2-1.8-0.2l-0.3-1l-1.9,0.1l0.4-1.4
			c0.2-0.7,0.3-1.1,0.7-1.7l1-1.4l1.4-1.3L185.5,262.8z"/>
		<path class="st8" d="M179.8,271.5l0.4-2.1l0.2,0l1.9-0.1l0.5,1l1.4,0.3l0,1.3l0,1.6l0.9-0.2L185,275l1.2-0.1l0,2.2l1.6-0.4
			l1.1,0.6l0.4,1.5l-0.7,1c-0.5,0.4-1.1,0.7-2.4,1.3l-0.2,0.1c-0.8,0.8-1.1,0.8-1.4,0.8c-0.2,0.4-0.6,0.6-2.3,1.1
			c-0.4,0.3-0.4,0.4-2.3,0.9c-0.4,0.3-0.8,0.5-2,0.5c-0.7,0.1-0.9,0.3-2-0.2c0,0-0.9-0.3-1.4-0.8c-0.5-0.5,0.9-1.1,0.9-1.1
			c0.4-0.3,0.6-0.6,1-1.4l0.7-1.9l1-2.1l0.4-1.4l0.5-2.4L179.8,271.5z"/>
		<path d="M289.5,253v-44.8h4v41h17.2v3.8H289.5z M335.9,253l-2.1-3.2c-0.9,1.2-2,2.1-3.3,2.8c-1.3,0.7-2.8,1-4.3,1h-1
			c-1.3,0-2.5-0.2-3.7-0.7c-1.1-0.5-2.1-1.2-3-2s-1.5-1.9-2-3c-0.5-1.1-0.7-2.4-0.7-3.7V221h3.8v23.4c0,0.8,0.1,1.5,0.4,2.2
			c0.3,0.7,0.7,1.2,1.2,1.8s1.1,0.9,1.8,1.2c0.7,0.3,1.4,0.4,2.2,0.4h2.6c0.8,0,1.5-0.1,2.2-0.4c0.7-0.3,1.3-0.7,1.8-1.2
			s0.9-1.1,1.2-1.8c0.3-0.7,0.4-1.4,0.4-2.2V221h3.8v32H335.9z M346.1,253v-44.8h3.8V253H346.1z M380.3,244.2c0,1.3-0.2,2.5-0.8,3.7
			c-0.5,1.1-1.1,2.1-2,3s-1.9,1.5-3,2c-1.1,0.5-2.4,0.7-3.7,0.7h-2.6c-1.3,0-2.5-0.2-3.7-0.7c-1.1-0.5-2.1-1.2-3-2s-1.5-1.9-2-3
			c-0.5-1.1-0.7-2.4-0.7-3.7v-14.4c0-1.3,0.2-2.5,0.7-3.7c0.5-1.1,1.2-2.1,2-3s1.9-1.5,3-2c1.1-0.5,2.4-0.8,3.7-0.8h2.6
			c1.3,0,2.5,0.2,3.7,0.8c1.1,0.5,2.1,1.1,3,2s1.5,1.9,2,3c0.5,1.1,0.8,2.4,0.8,3.7v7.5h-17.5v7.1c0,0.8,0.1,1.5,0.4,2.2
			c0.3,0.7,0.7,1.2,1.2,1.8s1.1,0.9,1.8,1.2c0.7,0.3,1.4,0.4,2.2,0.4h2.6c0.8,0,1.5-0.1,2.2-0.4c0.7-0.3,1.3-0.7,1.8-1.2
			s0.9-1.1,1.2-1.8c0.3-0.7,0.4-1.4,0.4-2.2v-2.1l3.8,0.6V244.2z M376.5,229.6c0-0.8-0.1-1.5-0.4-2.2c-0.3-0.7-0.7-1.3-1.2-1.8
			s-1.1-0.9-1.8-1.2c-0.7-0.3-1.4-0.4-2.2-0.4h-2.6c-0.8,0-1.5,0.1-2.2,0.4c-0.7,0.3-1.2,0.7-1.8,1.2s-0.9,1.1-1.2,1.8
			c-0.3,0.7-0.4,1.4-0.4,2.2v4.8h13.7V229.6z M420.9,242.6h-14.2l-2.9,10.4h-4.2l13.1-44.8h2.1L428,253h-4.2L420.9,242.6z
			 M407.8,238.7h12l-5.9-20.7l-0.1-1.7l-0.1,1.7L407.8,238.7z M450,253v-23.4c0-0.8-0.1-1.5-0.4-2.2c-0.3-0.7-0.7-1.3-1.2-1.8
			s-1.1-0.9-1.8-1.2c-0.7-0.3-1.4-0.4-2.2-0.4h-2.6c-0.8,0-1.5,0.1-2.2,0.4c-0.7,0.3-1.2,0.7-1.8,1.2s-0.9,1.1-1.2,1.8
			c-0.3,0.7-0.4,1.4-0.4,2.2V253h-3.8v-44.8h3.8v15.5c0.9-1,1.9-1.9,3.2-2.4s2.6-0.9,4-0.9h1c1.3,0,2.5,0.2,3.7,0.8
			c1.1,0.5,2.1,1.1,3,2s1.5,1.9,2,3c0.5,1.1,0.8,2.4,0.8,3.7V253H450z M495.3,253v-23.4c0-0.8-0.1-1.5-0.4-2.2
			c-0.3-0.7-0.7-1.3-1.2-1.8s-1.1-0.9-1.8-1.2c-0.7-0.3-1.4-0.4-2.2-0.4h-1.9c-0.8,0-1.5,0.1-2.2,0.4c-0.7,0.3-1.3,0.7-1.8,1.2
			c-0.5,0.5-0.9,1.1-1.2,1.8c-0.3,0.7-0.4,1.4-0.4,2.2V253h-3.8v-23.4c0-0.8-0.1-1.5-0.4-2.2c-0.3-0.7-0.7-1.3-1.2-1.8
			c-0.5-0.5-1.1-0.9-1.8-1.2c-0.7-0.3-1.4-0.4-2.2-0.4h-1.9c-0.8,0-1.5,0.1-2.2,0.4c-0.7,0.3-1.2,0.7-1.8,1.2s-0.9,1.1-1.2,1.8
			c-0.3,0.7-0.4,1.4-0.4,2.2V253h-3.8v-32h1.3l2.1,3.2c0.9-1.2,2-2.1,3.3-2.8c1.3-0.7,2.8-1.1,4.3-1.1h0.3c1.8,0,3.4,0.4,4.9,1.3
			c1.5,0.9,2.6,2.1,3.4,3.6c0.4-0.7,0.9-1.4,1.5-2c0.6-0.6,1.2-1.1,1.9-1.5c0.7-0.4,1.5-0.8,2.3-1c0.8-0.2,1.7-0.4,2.6-0.4h0.3
			c1.3,0,2.5,0.2,3.7,0.8c1.1,0.5,2.1,1.1,3,2s1.5,1.9,2,3c0.5,1.1,0.8,2.4,0.8,3.7V253H495.3z M528.2,244.2c0,1.3-0.2,2.5-0.8,3.7
			c-0.5,1.1-1.1,2.1-2,3s-1.9,1.5-3,2c-1.1,0.5-2.4,0.7-3.7,0.7h-2.6c-1.3,0-2.5-0.2-3.7-0.7c-1.1-0.5-2.1-1.2-3-2s-1.5-1.9-2-3
			c-0.5-1.1-0.7-2.4-0.7-3.7v-14.4c0-1.3,0.2-2.5,0.7-3.7c0.5-1.1,1.2-2.1,2-3s1.9-1.5,3-2c1.1-0.5,2.4-0.8,3.7-0.8h2.6
			c1.3,0,2.5,0.2,3.7,0.8c1.1,0.5,2.1,1.1,3,2s1.5,1.9,2,3c0.5,1.1,0.8,2.4,0.8,3.7v7.5h-17.5v7.1c0,0.8,0.1,1.5,0.4,2.2
			c0.3,0.7,0.7,1.2,1.2,1.8s1.1,0.9,1.8,1.2c0.7,0.3,1.4,0.4,2.2,0.4h2.6c0.8,0,1.5-0.1,2.2-0.4c0.7-0.3,1.3-0.7,1.8-1.2
			s0.9-1.1,1.2-1.8c0.3-0.7,0.4-1.4,0.4-2.2v-2.1l3.8,0.6V244.2z M524.4,229.6c0-0.8-0.1-1.5-0.4-2.2c-0.3-0.7-0.7-1.3-1.2-1.8
			s-1.1-0.9-1.8-1.2c-0.7-0.3-1.4-0.4-2.2-0.4h-2.6c-0.8,0-1.5,0.1-2.2,0.4c-0.7,0.3-1.2,0.7-1.8,1.2s-0.9,1.1-1.2,1.8
			c-0.3,0.7-0.4,1.4-0.4,2.2v4.8h13.7V229.6z M556,253l-2.1-3.2c-0.9,1.2-2,2.1-3.3,2.8c-1.3,0.7-2.8,1-4.3,1h-1
			c-1.3,0-2.5-0.2-3.7-0.7c-1.1-0.5-2.1-1.2-3-2s-1.5-1.9-2-3c-0.5-1.1-0.7-2.4-0.7-3.7v-14.4c0-1.3,0.2-2.5,0.7-3.7
			c0.5-1.1,1.2-2.1,2-3s1.9-1.5,3-2c1.1-0.5,2.4-0.8,3.7-0.8h1c1.4,0,2.8,0.3,4,0.9s2.3,1.4,3.2,2.4v-15.5h3.8V253H556z
			 M553.4,229.6c0-0.8-0.1-1.5-0.4-2.2c-0.3-0.7-0.7-1.3-1.2-1.8s-1.1-0.9-1.8-1.2c-0.7-0.3-1.4-0.4-2.2-0.4h-2.6
			c-0.8,0-1.5,0.1-2.2,0.4c-0.7,0.3-1.2,0.7-1.8,1.2s-0.9,1.1-1.2,1.8c-0.3,0.7-0.4,1.4-0.4,2.2v14.9c0,0.8,0.1,1.5,0.4,2.2
			c0.3,0.7,0.7,1.2,1.2,1.8s1.1,0.9,1.8,1.2c0.7,0.3,1.4,0.4,2.2,0.4h2.6c0.8,0,1.5-0.1,2.2-0.4c0.7-0.3,1.3-0.7,1.8-1.2
			s0.9-1.1,1.2-1.8c0.3-0.7,0.4-1.4,0.4-2.2V229.6z"/>
	</g>
</g>
</svg>
