<svg width="504" height="391" viewBox="0 0 504 391" fill="none" xmlns="http://www.w3.org/2000/svg">
<rect width="504" height="391" fill="white"/>
<path d="M136.682 237.455V232L180.591 209.636V218.364L146.909 234.591L147.182 234.045V235.409L146.909 234.864L180.591 251.091V259.818L136.682 237.455Z" fill="#3FD10B"/>
<path d="M259.591 239.455L215.682 261.818V253.091L249.364 236.864L249.091 237.409V236.045L249.364 236.591L215.682 220.364V211.636L259.591 234V239.455Z" fill="#FF2507"/>
<path d="M198.898 246.353L191.814 241.133L190.821 239.62L192.101 239.277L199.956 245.179L200.179 246.009L198.898 246.353Z" fill="black" stroke="black"/>
<path d="M201.414 209.647L192.046 239.07L199.845 244.764L201.477 239.879L203.594 232.416L205.163 225.101L207.671 213.975L208.715 208.358L210.228 200.835L211.558 193.361L212.004 189.905L211.671 188.66L210.844 187.77L209.397 187.49L208.649 188.358L205.768 197.359L201.414 209.647Z" fill="url(#paint0_linear_2_34)" stroke="url(#paint1_linear_2_34)"/>
<path d="M190.47 244.163L186.918 260.906L187.395 261.223L191.505 264.125L194.776 256.576L198.739 247.952L198.771 246.609L191.743 241.597L190.685 242.77L190.47 244.163Z" fill="url(#paint2_linear_2_34)" stroke="url(#paint3_linear_2_34)"/>
<path d="M191.378 264.382L186.846 261.37L186.393 262.604L186.631 262.762L186.87 262.921L188.833 264.396L190.797 265.872L191.378 264.382Z" fill="url(#paint4_linear_2_34)" stroke="url(#paint5_linear_2_34)"/>
<path d="M185.478 262.849L186.687 262.97L190.908 266.287C191.399 266.864 191.59 267.277 191.647 268.313C191.836 268.725 191.927 269.099 192.021 270.437C192.332 271.02 192.423 271.481 192.266 272.818L192.268 272.822C192.375 273.083 192.435 273.231 192.051 274.21C192.075 274.382 192.073 274.515 191.78 275.395C191.749 275.911 191.522 276.116 191.088 276.47C190.746 277.022 190.213 277.594 190.213 277.594C190.213 277.594 189.264 278.754 189.227 278.303L188.893 277.058L187.573 276.522L186.11 276.914L186.23 274.435L184.95 274.778L184.998 272.764L184.139 273.216L184.116 271.666C184.116 271.666 183.965 270.372 184.331 270.273C184.697 270.175 182.518 270.092 182.518 270.092L182.24 269.054L180.299 269.13L180.697 267.688C180.865 267.005 181.008 266.623 181.406 265.942L182.408 264.561L183.832 263.29L185.478 262.849Z" fill="#E97810" stroke="#E97810"/>
<path d="M179.758 271.499L180.172 269.386L180.355 269.337L182.295 269.262L182.756 270.251L184.203 270.53L184.171 271.873L184.195 273.424L185.109 273.179L185.005 274.986L186.158 274.899L186.166 277.122L187.812 276.681L188.949 277.266L189.338 278.718L188.627 279.724C188.134 280.158 187.54 280.456 186.233 281.033L186.069 281.151C185.234 281.928 185.014 281.99 184.717 281.958C184.523 282.309 184.089 282.534 182.45 283.01C182.006 283.312 182.067 283.444 180.147 283.924C179.726 284.246 179.396 284.397 178.134 284.463C177.461 284.55 177.212 284.789 176.12 284.262C176.12 284.262 175.259 283.974 174.726 283.449C174.193 282.925 175.608 282.353 175.608 282.353C175.965 282.076 176.19 281.736 176.611 280.972L177.275 279.059L178.293 277.007L178.691 275.566L179.233 273.197L179.758 271.499Z" fill="#EF0F0F" stroke="#FF2507"/>
<defs>
<linearGradient id="paint0_linear_2_34" x1="195.769" y1="191.142" x2="209.448" y2="242.191" gradientUnits="userSpaceOnUse">
<stop stop-color="#E0710B"/>
<stop offset="0.494792" stop-color="#5E5650" stop-opacity="0.950521"/>
<stop offset="1" stop-color="#DF720D" stop-opacity="0.9"/>
</linearGradient>
<linearGradient id="paint1_linear_2_34" x1="195.769" y1="191.142" x2="209.448" y2="242.191" gradientUnits="userSpaceOnUse">
<stop stop-color="#C06918" stop-opacity="0.9"/>
<stop offset="1" stop-color="#94551A" stop-opacity="0"/>
</linearGradient>
<linearGradient id="paint2_linear_2_34" x1="189.731" y1="242.136" x2="195.347" y2="263.096" gradientUnits="userSpaceOnUse">
<stop stop-color="#E12A2A"/>
<stop offset="0.489583"/>
<stop offset="1" stop-color="#E12A2A" stop-opacity="0"/>
</linearGradient>
<linearGradient id="paint3_linear_2_34" x1="189.731" y1="242.136" x2="195.347" y2="263.096" gradientUnits="userSpaceOnUse">
<stop stop-color="#772D2D"/>
<stop offset="0.828125" stop-color="#C4C4C4" stop-opacity="0"/>
</linearGradient>
<linearGradient id="paint4_linear_2_34" x1="188.218" y1="261.002" x2="189.608" y2="266.19" gradientUnits="userSpaceOnUse">
<stop offset="0.291667" stop-color="#C4C4C4"/>
<stop offset="0.494792"/>
<stop offset="0.71875" stop-color="#C4C4C4" stop-opacity="0.93"/>
</linearGradient>
<linearGradient id="paint5_linear_2_34" x1="188.218" y1="261.002" x2="189.608" y2="266.19" gradientUnits="userSpaceOnUse">
<stop stop-color="#C4C4C4"/>
<stop offset="0.828125" stop-color="#C4C4C4" stop-opacity="0"/>
</linearGradient>
</defs>
</svg>
