<svg width="69" height="11" viewBox="0 0 69 11" fill="none" xmlns="http://www.w3.org/2000/svg">
<path d="M0.336 10V9.778H1.416V1.222H0.336V0.999999H3.84V1.222H2.76V9.778H4.428C4.892 9.778 5.27 9.722 5.562 9.61C5.854 9.494 6.082 9.328 6.246 9.112C6.41 8.896 6.526 8.636 6.594 8.332C6.662 8.024 6.702 7.68 6.714 7.3H6.936V10H0.336ZM10.1685 10.12C9.7085 10.12 9.3565 10.042 9.1125 9.886C8.8725 9.726 8.7085 9.51 8.6205 9.238C8.5365 8.966 8.4945 8.656 8.4945 8.308V4.702H7.7085V4.48H9.7365V8.146C9.7365 8.482 9.7525 8.772 9.7845 9.016C9.8165 9.26 9.8805 9.448 9.9765 9.58C10.0765 9.708 10.2285 9.772 10.4325 9.772C10.7365 9.772 10.9965 9.688 11.2125 9.52C11.4325 9.352 11.6105 9.134 11.7465 8.866C11.8865 8.598 11.9885 8.314 12.0525 8.014C12.1205 7.714 12.1545 7.432 12.1545 7.168L12.2925 7.144C12.2925 7.416 12.2625 7.722 12.2025 8.062C12.1425 8.398 12.0345 8.724 11.8785 9.04C11.7265 9.352 11.5125 9.61 11.2365 9.814C10.9605 10.018 10.6045 10.12 10.1685 10.12ZM12.1545 10V4.702H11.3265V4.48H13.4025V9.778H14.1885V10H12.1545ZM17.2421 0.999999V9.778H18.2681V10H14.9741V9.778H16.0001V1.222H14.9741V0.999999H17.2421ZM22.022 10.12C21.498 10.12 21.026 10.006 20.606 9.778C20.186 9.55 19.854 9.222 19.61 8.794C19.366 8.362 19.244 7.844 19.244 7.24C19.244 6.636 19.36 6.12 19.592 5.692C19.824 5.26 20.144 4.932 20.552 4.708C20.96 4.48 21.428 4.366 21.956 4.366C22.54 4.366 23.01 4.482 23.366 4.714C23.722 4.946 23.982 5.252 24.146 5.632C24.31 6.012 24.392 6.42 24.392 6.856H20.048V6.634H22.976C22.976 6.422 22.966 6.198 22.946 5.962C22.926 5.722 22.882 5.498 22.814 5.29C22.75 5.078 22.65 4.908 22.514 4.78C22.378 4.648 22.192 4.582 21.956 4.582C21.692 4.582 21.474 4.654 21.302 4.798C21.134 4.938 21.002 5.132 20.906 5.38C20.81 5.624 20.744 5.904 20.708 6.22C20.672 6.532 20.654 6.86 20.654 7.204C20.654 7.56 20.676 7.898 20.72 8.218C20.764 8.538 20.84 8.822 20.948 9.07C21.056 9.314 21.208 9.508 21.404 9.652C21.6 9.796 21.848 9.868 22.148 9.868C22.684 9.868 23.124 9.73 23.468 9.454C23.816 9.178 24.066 8.828 24.218 8.404H24.47C24.314 8.896 24.034 9.306 23.63 9.634C23.23 9.958 22.694 10.12 22.022 10.12ZM30.5284 7.186V6.964H34.3504V7.186H30.5284ZM32.9524 0.826L36.0544 9.778H36.9844V10H33.3244V9.778H34.5064L32.1844 2.596L29.6764 9.778H30.9604V10H28.3204V9.778H29.4244L32.5744 0.826H32.9524ZM37.7202 10V9.778H38.5062V1.222H37.7202V0.999999H39.7482V9.778H40.4862V10H37.7202ZM41.4282 10V9.778H42.1662V6.334C42.1662 5.998 42.1502 5.708 42.1182 5.464C42.0902 5.22 42.0262 5.034 41.9262 4.906C41.8302 4.774 41.6802 4.708 41.4762 4.708C41.1722 4.708 40.9102 4.792 40.6902 4.96C40.4742 5.128 40.2962 5.346 40.1562 5.614C40.0202 5.882 39.9182 6.166 39.8502 6.466C39.7822 6.766 39.7482 7.048 39.7482 7.312L39.6042 7.336C39.6042 7.064 39.6362 6.76 39.7002 6.424C39.7682 6.084 39.8802 5.758 40.0362 5.446C40.1962 5.13 40.4142 4.872 40.6902 4.672C40.9662 4.468 41.3102 4.366 41.7222 4.366C42.1822 4.366 42.5322 4.444 42.7722 4.6C43.0122 4.756 43.1742 4.97 43.2582 5.242C43.3462 5.51 43.3902 5.818 43.3902 6.166V9.778H44.1822V10H41.4282ZM46.9724 4.48V9.778H47.6984V10H44.9624V9.778H45.7484V4.702H44.9624V4.48H46.9724ZM50.3924 6.166V9.778H51.1184V10H48.4424V9.778H49.1684V6.298C49.1684 5.962 49.1544 5.674 49.1264 5.434C49.1024 5.194 49.0444 5.012 48.9524 4.888C48.8604 4.76 48.7204 4.696 48.5324 4.696C48.2684 4.696 48.0384 4.782 47.8424 4.954C47.6464 5.126 47.4844 5.346 47.3564 5.614C47.2284 5.878 47.1324 6.158 47.0684 6.454C47.0044 6.75 46.9724 7.024 46.9724 7.276L46.8464 7.306C46.8464 7.034 46.8764 6.73 46.9364 6.394C47.0004 6.058 47.1064 5.736 47.2544 5.428C47.4064 5.116 47.6124 4.862 47.8724 4.666C48.1324 4.466 48.4624 4.366 48.8624 4.366C49.2584 4.366 49.5684 4.444 49.7924 4.6C50.0164 4.756 50.1724 4.97 50.2604 5.242C50.3484 5.51 50.3924 5.818 50.3924 6.166ZM53.8064 6.166V9.778H54.5984V10H51.8564V9.778H52.5884V6.298C52.5884 5.962 52.5704 5.674 52.5344 5.434C52.5024 5.194 52.4364 5.012 52.3364 4.888C52.2404 4.76 52.0964 4.696 51.9044 4.696C51.6324 4.696 51.4004 4.782 51.2084 4.954C51.0164 5.126 50.8604 5.346 50.7404 5.614C50.6244 5.878 50.5364 6.158 50.4764 6.454C50.4204 6.75 50.3924 7.024 50.3924 7.276L50.2544 7.306C50.2544 7.034 50.2804 6.73 50.3324 6.394C50.3884 6.058 50.4884 5.736 50.6324 5.428C50.7764 5.116 50.9764 4.862 51.2324 4.666C51.4924 4.466 51.8264 4.366 52.2344 4.366C52.6304 4.366 52.9424 4.444 53.1704 4.6C53.4024 4.756 53.5664 4.97 53.6624 5.242C53.7584 5.51 53.8064 5.818 53.8064 6.166ZM58.3384 10.12C57.8144 10.12 57.3424 10.006 56.9224 9.778C56.5024 9.55 56.1704 9.222 55.9264 8.794C55.6824 8.362 55.5604 7.844 55.5604 7.24C55.5604 6.636 55.6764 6.12 55.9084 5.692C56.1404 5.26 56.4604 4.932 56.8684 4.708C57.2764 4.48 57.7444 4.366 58.2724 4.366C58.8564 4.366 59.3264 4.482 59.6824 4.714C60.0384 4.946 60.2984 5.252 60.4624 5.632C60.6264 6.012 60.7084 6.42 60.7084 6.856H56.3644V6.634H59.2924C59.2924 6.422 59.2824 6.198 59.2624 5.962C59.2424 5.722 59.1984 5.498 59.1304 5.29C59.0664 5.078 58.9664 4.908 58.8304 4.78C58.6944 4.648 58.5084 4.582 58.2724 4.582C58.0084 4.582 57.7904 4.654 57.6184 4.798C57.4504 4.938 57.3184 5.132 57.2224 5.38C57.1264 5.624 57.0604 5.904 57.0244 6.22C56.9884 6.532 56.9704 6.86 56.9704 7.204C56.9704 7.56 56.9924 7.898 57.0364 8.218C57.0804 8.538 57.1564 8.822 57.2644 9.07C57.3724 9.314 57.5244 9.508 57.7204 9.652C57.9164 9.796 58.1644 9.868 58.4644 9.868C59.0004 9.868 59.4404 9.73 59.7844 9.454C60.1324 9.178 60.3824 8.828 60.5344 8.404H60.7864C60.6304 8.896 60.3504 9.306 59.9464 9.634C59.5464 9.958 59.0104 10.12 58.3384 10.12ZM64.3608 10.114C63.9368 10.114 63.5348 10 63.1548 9.772C62.7788 9.544 62.4708 9.216 62.2308 8.788C61.9948 8.36 61.8768 7.846 61.8768 7.246C61.8768 6.646 61.9948 6.132 62.2308 5.704C62.4708 5.272 62.7788 4.942 63.1548 4.714C63.5348 4.482 63.9368 4.366 64.3608 4.366C64.8528 4.366 65.2608 4.534 65.5848 4.87C65.9128 5.206 66.1408 5.662 66.2688 6.238V1.222H65.4768V0.999999H67.5228V9.778H68.3028V10H66.2688V8.248C66.1408 8.828 65.9128 9.284 65.5848 9.616C65.2608 9.948 64.8528 10.114 64.3608 10.114ZM64.6248 9.79C64.9088 9.79 65.1748 9.692 65.4228 9.496C65.6748 9.296 65.8788 9.008 66.0348 8.632C66.1908 8.252 66.2688 7.79 66.2688 7.246C66.2688 6.702 66.1908 6.24 66.0348 5.86C65.8788 5.48 65.6748 5.19 65.4228 4.99C65.1748 4.79 64.9088 4.69 64.6248 4.69C64.3368 4.69 64.0928 4.79 63.8928 4.99C63.6968 5.19 63.5488 5.48 63.4488 5.86C63.3488 6.24 63.2988 6.702 63.2988 7.246C63.2988 7.79 63.3488 8.252 63.4488 8.632C63.5488 9.008 63.6968 9.296 63.8928 9.496C64.0928 9.692 64.3368 9.79 64.6248 9.79Z" fill="black"/>
</svg>
